#!OML:ASF F:\VICON\USERDATA\INSTALL\Justin_Nancy\Justin_Nancy.ASF
:FULLY-SPECIFIED
:DEGREES
49
root 11.7942 16.3489 -13.9073 0.442082 -27.1508 13.0575
lowerback 10.8052 -1.1544 -8.41248
upperback 0.560882 -2.58831 -0.255821
thorax -5.12199 -1.08726 4.85257
lowerneck -19.2249 -3.96554 -10.4927
upperneck 13.3845 -4.25883 9.61662
head 7.7162 -1.66577 4.40506
rclavicle 2.38542e-014 7.95139e-015
rhumerus -58.9515 10.2431 -95.0392
rradius 102.424
rwrist -7.80716
rhand -15.7916 25.911
rfingers 7.12502
rthumb 10.4012 -3.8117
lclavicle 2.38542e-014 7.95139e-015
lhumerus -39.7382 -7.39256 81.0472
lradius 110.396
lwrist 24.2795
lhand -18.9784 7.6365
lfingers 7.12502
lthumb 7.326 37.4897
rfemur -38.2556 0.448234 18.3569
rtibia 95.3288
rfoot -7.18952 2.2447
rtoes -2.27446
lfemur -6.37058 -7.15136 -18.8865
ltibia 37.1538
lfoot -21.1814 1.22035
ltoes -37.8691
50
root 11.6217 16.4414 -13.65 0.856322 -28.0316 12.9548
lowerback 10.8336 -1.63908 -8.5798
upperback 0.16974 -3.2663 -0.112082
thorax -5.43946 -1.38704 5.2036
lowerneck -18.7689 -3.56436 -10.5167
upperneck 13.3368 -3.74629 9.61395
head 7.56713 -1.43474 4.47305
rclavicle 6.14245e-014 1.19271e-014
rhumerus -59.9719 11.1738 -95.5733
rradius 102.48
rwrist -6.73149
rhand -15.6218 26.1006
rfingers 7.12502
rthumb 10.565 -3.61385
lclavicle 6.14245e-014 1.19271e-014
lhumerus -40.2839 -7.14899 81.0115
lradius 110.802
lwrist 24.5471
lhand -19.4864 7.9105
lfingers 7.12502
lthumb 6.83567 37.7801
rfemur -40.1825 0.471663 18.8861
rtibia 93.144
rfoot -8.42301 2.34595
rtoes -4.9797
lfemur -5.41395 -6.68889 -18.8089
ltibia 36.589
lfoot -18.5354 1.04905
ltoes -38.287
51
root 11.4453 16.5412 -13.3911 1.14231 -28.79 13.0976
lowerback 10.7953 -2.35322 -9.24737
upperback -0.152302 -4.28211 0.360923
thorax -5.52574 -1.8469 6.22496
lowerneck -18.3484 -3.08197 -11.449
upperneck 13.2181 -2.89962 9.75772
head 7.38011 -1.07561 4.77822
rclavicle 6.87795e-014 2.38542e-015
rhumerus -60.8782 13.1958 -95.657
rradius 102.483
rwrist -6.31581
rhand -15.0234 26.125
rfingers 7.12502
rthumb 11.1422 -3.5592
lclavicle 6.87795e-014 2.38542e-015
lhumerus -41.1859 -5.55888 81.2041
lradius 111.266
lwrist 24.5664
lhand -18.8131 7.44606
lfingers 7.12502
lthumb 7.4856 37.2936
rfemur -41.9214 0.428378 19.1274
rtibia 90.6798
rfoot -7.0711 1.87929
rtoes 1.39836
lfemur -4.65193 -6.3616 -18.9582
ltibia 36.066
lfoot -16.2003 -0.857399
ltoes -38.768
52
root 11.2666 16.6558 -13.1056 1.20018 -29.6425 13.4023
lowerback 10.9324 -2.63337 -9.85468
upperback -0.418461 -4.74697 0.594955
thorax -5.74271 -2.03207 6.8972
lowerneck -18.2707 -2.9263 -11.6172
upperneck 13.2518 -2.61758 9.56164
head 7.34475 -0.969459 4.77292
rclavicle 3.12092e-014 2.38542e-014
rhumerus -61.7168 13.996 -95.4488
rradius 102.566
rwrist -6.15374
rhand -14.1221 25.8408
rfingers 7.12502
rthumb 12.0113 -3.79458
lclavicle 3.12092e-014 2.38542e-014
lhumerus -41.983 -5.17814 81.7609
lradius 111.793
lwrist 24.5897
lhand -18.8285 6.83478
lfingers 7.12502
lthumb 7.47071 36.6829
rfemur -43.1922 0.390646 19.0828
rtibia 87.8591
rfoot -8.91842 1.74612
rtoes -2.33016
lfemur -3.57734 -5.94647 -19.3821
ltibia 35.3864
lfoot -12.9821 -0.879536
ltoes -39.2712
53
root 11.0833 16.7679 -12.8045 1.27974 -30.7756 13.4131
lowerback 10.9378 -2.3259 -9.63727
upperback -0.283016 -4.32383 0.282295
thorax -5.7189 -1.84146 6.38077
lowerneck -19.3435 -3.28482 -10.6684
upperneck 13.5512 -3.22392 9.33278
head 7.67547 -1.20752 4.47144
rclavicle 6.54002e-014 -6.36111e-015
rhumerus -61.8651 12.6518 -95.2412
rradius 102.512
rwrist -5.65316
rhand -13.5078 25.5313
rfingers 7.12502
rthumb 12.6036 -4.06851
lclavicle 6.54002e-014 -6.36111e-015
lhumerus -41.6504 -6.8437 82.1291
lradius 112.024
lwrist 24.8002
lhand -19.4115 6.7496
lfingers 7.12502
lthumb 6.90797 36.6169
rfemur -44.048 0.699656 19.29
rtibia 84.6947
rfoot -9.75366 1.67196
rtoes -4.82342
lfemur -2.23692 -5.33216 -19.5557
ltibia 34.4471
lfoot -10.3562 -2.77226
ltoes -41.0926
54
root 10.8918 16.877 -12.5044 1.38356 -31.8728 13.1646
lowerback 10.8862 -1.62077 -8.79771
upperback 0.464419 -3.27933 -0.419793
thorax -5.16011 -1.41597 4.9948
lowerneck -22.2638 -4.24315 -8.95417
upperneck 14.2466 -4.75575 9.03276
head 8.52141 -1.79994 3.88714
rclavicle -1.74931e-014 -1.74931e-014
rhumerus -60.8663 9.67518 -94.8361
rradius 102.465
rwrist -5.14434
rhand -13.1728 25.3433
rfingers 7.12502
rthumb 12.9267 -4.23629
lclavicle -1.74931e-014 -1.74931e-014
lhumerus -39.6727 -9.84707 81.9209
lradius 111.868
lwrist 25.2463
lhand -18.994 6.6532
lfingers 7.12502
lthumb 7.31096 36.5069
rfemur -44.5166 1.05805 19.7597
rtibia 81.2226
rfoot -10.1994 1.26838
rtoes -7.50534
lfemur -0.872382 -5.15133 -19.4722
ltibia 33.2771
lfoot -6.26013 -3.94389
ltoes -39.3841
55
root 10.6956 16.985 -12.1952 1.3827 -33.0986 13.0259
lowerback 10.9967 -1.64257 -8.82376
upperback 0.116576 -3.32685 -0.176626
thorax -5.57019 -1.40339 5.29061
lowerneck -21.4683 -4.17416 -9.21419
upperneck 14.2374 -4.60489 8.8192
head 8.36792 -1.78452 3.87911
rclavicle 1.11319e-014 3.18055e-015
rhumerus -62.0887 9.83903 -94.4321
rradius 102.346
rwrist -5.28509
rhand -12.868 24.948
rfingers 7.12502
rthumb 13.2205 -4.61275
lclavicle 1.11319e-014 3.18055e-015
lhumerus -40.7339 -9.75357 82.7011
lradius 111.922
lwrist 25.2176
lhand -18.2783 6.36959
lfingers 7.12502
lthumb 8.0017 36.1981
rfemur -44.8025 1.42847 20.1339
rtibia 77.483
rfoot -10.6446 0.801452
rtoes -9.65954
lfemur 0.588314 -5.31183 -19.6356
ltibia 31.9422
lfoot -1.4123 -5.56483
ltoes -35.6448
